<svg xmlns="http://www.w3.org/2000/svg" viewBox="0 0 64 64"><ellipse cx="32" cy="57" rx="12" ry="2.5" fill="#000000" opacity="0.08"/><path d="M22 26 Q22 10 32 10 Q42 10 42 26 Q42 33 37 37 L27 37 Q22 33 22 26 Z" fill="#f7f9fa"/><path d="M32 10 Q42 10 42 26 Q42 33 37 37 L33 37 Q38 33 38 25 Q38 12 32 10 Z" fill="#dfe6ea"/><ellipse cx="28" cy="20" rx="3.5" ry="6" fill="#ffffff" opacity="0.7"/><path d="M26 37 L38 37 L37 42 L27 42 Z" fill="#c8ced4"/><path d="M26 41 L38 41 L37.4 44 L26.6 44 Z" fill="#aab2ba"/><path d="M27 43.5 L37 43.5 L36.4 47 L27.6 47 Z" fill="#c8ced4"/><path d="M27.6 46.5 L36.4 46.5 L35.8 50 L28.2 50 Z" fill="#aab2ba"/><path d="M28.6 49.5 L35.4 49.5 L34 53 Q32 54 30 53 Z" fill="#8a929a"/><ellipse cx="32" cy="22" rx="9" ry="10" fill="#fffde0" opacity="0.35"/></svg>