<svg xmlns="http://www.w3.org/2000/svg" viewBox="0 0 64 64"><defs><linearGradient id="bd-body" x1="0" y1="0" x2="1" y2="0"><stop offset="0" stop-color="#e2ead9"/><stop offset="0.55" stop-color="#c3d3ae"/><stop offset="1" stop-color="#a7ba8f"/></linearGradient></defs><ellipse cx="32" cy="57" rx="15" ry="2.6" fill="#000000" opacity="0.08"/><path d="M19 20 L45 20 Q47 20 47 24 L47 50 Q47 53 44 53 L20 53 Q17 53 17 50 L17 24 Q17 20 19 20 Z" fill="url(#bd-body)"/><path d="M27 14 L37 14 L37 21 L27 21 Z" fill="#b7c7a2"/><rect x="28" y="10" width="8" height="6" rx="1.4" fill="#8a9a74"/><rect x="28.5" y="10.5" width="7" height="2" rx="1" fill="#a9b995"/><path d="M38 21 Q46 22 46 30 L42 30 Q42 25 37 25 Z" fill="#9aac82"/><rect x="21" y="30" width="22" height="10" rx="1.5" fill="#f2f5ec" opacity="0.85"/><rect x="21" y="30" width="22" height="10" rx="1.5" fill="none" stroke="#8fa079" stroke-width="0.8"/><rect x="20" y="24" width="4" height="26" fill="#ffffff" opacity="0.28"/></svg>