<svg xmlns="http://www.w3.org/2000/svg" viewBox="0 0 64 64"><ellipse cx="32" cy="52" rx="19" ry="4" fill="#000000" opacity="0.08"/><ellipse cx="32" cy="44" rx="20" ry="8" fill="#c46a1c"/><path d="M12 26 A20 8 0 0 0 52 26 L52 44 A20 8 0 0 1 12 44 Z" fill="#d97b26"/><ellipse cx="32" cy="26" rx="20" ry="8" fill="#eb8f34"/><ellipse cx="32" cy="26" rx="20" ry="8" fill="none" stroke="#c46a1c" stroke-width="1"/><ellipse cx="32" cy="26" rx="14" ry="5.4" fill="#c96f1e"/><ellipse cx="32" cy="26" rx="14" ry="5.4" fill="none" stroke="#b25f16" stroke-width="0.8"/><g fill="#b25f16"><ellipse cx="16" cy="34" rx="2.6" ry="2.4"/><ellipse cx="48" cy="34" rx="2.6" ry="2.4"/><ellipse cx="32" cy="38" rx="2.8" ry="2.2"/></g><path d="M12 26 L12 44 A20 8 0 0 0 20 49.5 L20 31 A20 8 0 0 1 12 26 Z" fill="#b8611a" opacity="0.5"/></svg>