<svg xmlns="http://www.w3.org/2000/svg" viewBox="0 0 64 64"><defs><linearGradient id="boG" x1="0" y1="0" x2="0" y2="1"><stop offset="0" stop-color="#e4e9ee"/><stop offset="0.5" stop-color="#bcc5cd"/><stop offset="1" stop-color="#8f99a3"/></linearGradient></defs><ellipse cx="32" cy="55" rx="21" ry="3" fill="#000000" opacity="0.08"/><g transform="rotate(-16 32 33)"><rect x="24" y="28" width="26" height="10" rx="1.5" fill="url(#boG)"/><rect x="24" y="28" width="26" height="3" rx="1.5" fill="#eef2f5" opacity="0.85"/><g stroke="#8b95a0" stroke-width="1"><path d="M27 28 v10 M31 28 v10 M35 28 v10 M39 28 v10 M43 28 v10 M47 28 v10"/></g><path d="M24 33 h26" stroke="#7c8690" stroke-width="0.8" opacity="0.5"/><g><path d="M10 26 l6 -3.5 6 3.5 v8 l-6 3.5 -6 -3.5 z" fill="url(#boG)"/><path d="M10 26 l6 -3.5 6 3.5 -6 3.5 z" fill="#e4e9ee"/><path d="M22 26 l-6 3.5 v8 l6 -3.5 z" fill="#9aa4ae"/><circle cx="16" cy="30" r="2.6" fill="#7c8690"/><circle cx="16" cy="30" r="1.4" fill="#5f6871"/></g></g></svg>