<svg xmlns="http://www.w3.org/2000/svg" viewBox="0 0 64 64">
  <ellipse cx="32" cy="50" rx="20" ry="3.2" fill="#000000" opacity="0.08"/>
  <path d="M10 28 L34 20 L54 26 L30 34 Z" fill="#cf6f4a"/>
  <path d="M30 34 L54 26 L54 42 L30 50 Z" fill="#9e4c2e"/>
  <path d="M10 28 L30 34 L30 50 L10 44 Z" fill="#bd6039"/>
  <path d="M10 28 L34 20 L54 26 L52 26.6 L34 20.9 L11.5 28.3 Z" fill="#e0916f" opacity="0.8"/>
  <g fill="#a95531" opacity="0.55"><circle cx="16" cy="34" r="0.5"/><circle cx="22" cy="40" r="0.5"/><circle cx="26" cy="45" r="0.4"/><circle cx="20" cy="37" r="0.4"/></g>
  <g fill="#8a3f24" opacity="0.5"><circle cx="38" cy="34" r="0.5"/><circle cx="46" cy="36" r="0.4"/><circle cx="42" cy="42" r="0.4"/><circle cx="49" cy="32" r="0.4"/></g>
</svg>