<svg xmlns="http://www.w3.org/2000/svg" viewBox="0 0 64 64">
  <ellipse cx="32" cy="55" rx="19" ry="3.2" fill="#000000" opacity="0.08"/>
  <path d="M14 22 L40 16 L52 22 L26 28 Z" fill="#c96a45"/>
  <path d="M52 22 L52 44 L26 50 L26 28 Z" fill="#a24f30"/>
  <path d="M14 22 L26 28 L26 50 L14 44 Z" fill="#bd5f3c"/>
  <g fill="#7f3f27"><path d="M22 24 L28 22.6 L28 24.4 L22 25.8 Z"/><path d="M31 22 L37 20.6 L37 22.4 L31 23.8 Z"/><path d="M40 20 L46 18.6 L46 20.4 L40 21.8 Z"/></g>
  <g fill="#8f4a2e"><rect x="16" y="30" width="2.2" height="12"/><rect x="20" y="31.5" width="2.2" height="12"/></g>
</svg>