<svg xmlns="http://www.w3.org/2000/svg" viewBox="0 0 64 64"><defs><linearGradient id="brT" x1="0" y1="0" x2="0" y2="1"><stop offset="0" stop-color="#f08a3c"/><stop offset="1" stop-color="#c85f14"/></linearGradient></defs><ellipse cx="32" cy="55" rx="23" ry="3" fill="#000000" opacity="0.08"/><path d="M10 26 h40 l-7 15 h-22 z" fill="url(#brT)"/><path d="M10 26 h40 l-1.4 3 h-37.2 z" fill="#f6a866" opacity="0.85"/><path d="M21 41 h22 l-1 2 h-20 z" fill="#a34e0f"/><path d="M50 27 l7 -3.5" stroke="#8a949e" stroke-width="2.4" stroke-linecap="round"/><path d="M11 40 l14 3 M13 44 l32 0" stroke="#5f6871" stroke-width="2.2" stroke-linecap="round"/><path d="M18 43 l-4 8 M40 43 l3 8" stroke="#5f6871" stroke-width="2.2" stroke-linecap="round"/><circle cx="20" cy="47" r="7.5" fill="#26292d"/><circle cx="20" cy="47" r="7.5" fill="none" stroke="#3d4147" stroke-width="1.6"/><circle cx="20" cy="47" r="3" fill="#8a949e"/><circle cx="20" cy="47" r="1.3" fill="#5f6871"/><ellipse cx="17.6" cy="44.6" rx="2.4" ry="1.4" fill="#4a4f56" opacity="0.7"/></svg>