<svg xmlns="http://www.w3.org/2000/svg" viewBox="0 0 64 64">
  <ellipse cx="32" cy="52" rx="24" ry="3.5" fill="#000000" opacity="0.08"/>
  <path d="M20 20 L48 20 A10 16 0 0 1 48 52 L20 52 Z" fill="#b7bdc3"/>
  <path d="M20 20 L48 20 A10 16 0 0 1 48 24 L20 24 Z" fill="#cbd0d5"/>
  <path d="M20 48 L48 48 A10 16 0 0 1 48 52 L20 52 Z" fill="#969ca2"/>
  <ellipse cx="20" cy="36" rx="10" ry="16" fill="#c4cad0"/>
  <ellipse cx="20" cy="36" rx="6.5" ry="10.5" fill="#6b7178"/>
  <path d="M20 25.5 A6.5 10.5 0 0 1 20 46.5 A6.5 10.5 0 0 0 20 25.5 Z" fill="#565c62"/>
  <g fill="#a3a9af" opacity="0.7"><circle cx="34" cy="30" r="0.6"/><circle cx="40" cy="40" r="0.6"/><circle cx="44" cy="34" r="0.5"/><circle cx="37" cy="46" r="0.5"/></g>
</svg>