<svg xmlns="http://www.w3.org/2000/svg" viewBox="0 0 64 64">
  <ellipse cx="32" cy="52" rx="26" ry="3" fill="#000000" opacity="0.08"/>
  <rect x="6" y="44" width="52" height="4" rx="1" fill="#3b444d"/>
  <g transform="rotate(-14 34 30)">
    <ellipse cx="34" cy="30" rx="15" ry="10" fill="#c2c8ce"/>
    <ellipse cx="34" cy="30" rx="15" ry="10" fill="none" stroke="#9aa1a8" stroke-width="1"/>
    <path d="M22 24 L44 36 M25 20 L46 31 M20 30 L40 39" stroke="#9aa1a8" stroke-width="1.4" fill="none"/>
    <ellipse cx="49" cy="30" rx="4" ry="7" fill="#aeb5bb"/>
  </g>
  <path d="M8 30 L20 30 L20 44 L6 44 Q5 40 6 34 Q6 30 8 30 Z" fill="#2fa8c7"/>
  <path d="M9 32 L18 32 L18 38 L9 38 Z" fill="#bfeaf3"/>
  <rect x="6" y="40" width="14" height="4" fill="#e8edf1"/>
  <circle cx="14" cy="49" r="5" fill="#2b2f34"/><circle cx="14" cy="49" r="2" fill="#6b7178"/>
  <circle cx="34" cy="49" r="5" fill="#2b2f34"/><circle cx="34" cy="49" r="2" fill="#6b7178"/>
  <circle cx="45" cy="49" r="5" fill="#2b2f34"/><circle cx="45" cy="49" r="2" fill="#6b7178"/>
</svg>