<svg xmlns="http://www.w3.org/2000/svg" viewBox="0 0 64 64"><defs><linearGradient id="ca-t" x1="0" y1="0" x2="1" y2="1"><stop offset="0" stop-color="#ecdcc0"/><stop offset="1" stop-color="#d3bd97"/></linearGradient></defs><ellipse cx="32" cy="55" rx="22" ry="3.4" fill="#000000" opacity="0.08"/><path d="M32 16 L54 27 L32 38 L10 27 Z" fill="#b89f76"/><path d="M32 17 L41 21.5 L23 30.5 L14 26 Z" fill="url(#ca-t)"/><path d="M42 22 L51 26.5 L33 35.5 L24 31 Z" fill="url(#ca-t)"/><path d="M22 31 L31 35.5 L15 43.5 L6 39 Z" fill="url(#ca-t)" opacity="0.96"/><path d="M33 36 L42 40.5 L26 48.5 L17 44 Z" fill="url(#ca-t)" opacity="0.96"/><path d="M32 17 L41 21.5 L23 30.5 L14 26 Z" fill="#ffffff" opacity="0.16"/><path d="M42 22 L51 26.5 L33 35.5 L24 31 Z" fill="#ffffff" opacity="0.1"/></svg>