<svg xmlns="http://www.w3.org/2000/svg" viewBox="0 0 64 64"><defs><radialGradient id="hhG" cx="0.42" cy="0.3" r="0.8"><stop offset="0" stop-color="#ffd747"/><stop offset="0.65" stop-color="#f2b109"/><stop offset="1" stop-color="#cf8e00"/></radialGradient></defs><ellipse cx="32" cy="53" rx="20" ry="3" fill="#000000" opacity="0.08"/><path d="M9 44 q0 -4 5 -4.6 h36 q5 0.6 5 4.6 v1.5 q0 1.5 -2 1.5 h-42 q-2 0 -2 -1.5 z" fill="#f2b109"/><path d="M9 45.6 h46 v0.9 q0 1.5 -2 1.5 h-42 q-2 0 -2 -1.5 z" fill="#cf8e00"/><path d="M15 41 q1 -20 17 -20 q16 0 17 20 q-8 -3.5 -17 -3.5 q-9 0 -17 3.5 z" fill="url(#hhG)"/><path d="M29 21.4 q-11 2.5 -13 18.4 q-0.6 0.24 -1 0.4 q1 -19 14 -18.8 z" fill="#ffe07a" opacity="0.8"/><g fill="#d99700" opacity="0.85"><path d="M26 22 q-4.5 8 -4.6 17.2 l1.5 -0.4 q0.3 -9 4.4 -16.4 z"/><path d="M38 22 q4.5 8 4.6 17.2 l-1.5 -0.4 q-0.3 -9 -4.4 -16.4 z"/></g><ellipse cx="32" cy="24.5" rx="4.2" ry="2.4" fill="#ffe98f" opacity="0.7"/><path d="M14.5 40 q17.5 -3.6 35 0" fill="none" stroke="#b47e00" stroke-width="0.8" opacity="0.5"/></svg>