<svg xmlns="http://www.w3.org/2000/svg" viewBox="0 0 64 64"><defs><linearGradient id="clouG" x1="0" y1="0" x2="0" y2="1"><stop offset="0" stop-color="#eef2f5"/><stop offset="0.5" stop-color="#cbd3da"/><stop offset="1" stop-color="#9ba5af"/></linearGradient></defs><ellipse cx="32" cy="57" rx="20" ry="2.6" fill="#000000" opacity="0.08"/><g transform="rotate(-28 32 32)"><g transform="translate(-9 0)"><path d="M31 30 h16 l3 2 -3 2 h-16z" fill="url(#clouG)"/><path d="M31 30 h16 v1.4 h-16z" fill="#f2f5f8"/><path d="M47 30 l4 2 -4 2 z" fill="#7f8a94"/><ellipse cx="30" cy="32" rx="2.4" ry="5" fill="#d5dbe1"/><ellipse cx="30" cy="32" rx="1" ry="4" fill="#aab3bc"/></g><g transform="translate(0 0)"><path d="M31 30 h16 l3 2 -3 2 h-16z" fill="url(#clouG)"/><path d="M31 30 h16 v1.4 h-16z" fill="#f2f5f8"/><path d="M47 30 l4 2 -4 2 z" fill="#7f8a94"/><ellipse cx="30" cy="32" rx="2.4" ry="5" fill="#d5dbe1"/><ellipse cx="30" cy="32" rx="1" ry="4" fill="#aab3bc"/></g><g transform="translate(9 0)"><path d="M31 30 h16 l3 2 -3 2 h-16z" fill="url(#clouG)"/><path d="M31 30 h16 v1.4 h-16z" fill="#f2f5f8"/><path d="M47 30 l4 2 -4 2 z" fill="#7f8a94"/><ellipse cx="30" cy="32" rx="2.4" ry="5" fill="#d5dbe1"/><ellipse cx="30" cy="32" rx="1" ry="4" fill="#aab3bc"/></g></g></svg>