<svg xmlns="http://www.w3.org/2000/svg" viewBox="0 0 64 64"><ellipse cx="32" cy="52" rx="24" ry="4" fill="#000000" opacity="0.08"/><path d="M8 22 L44 14 L56 19 L20 27 Z" fill="#e3c896"/><path d="M12 20 Q34 24 52 18" stroke="#cbab72" stroke-width="0.6" fill="none" opacity="0.6"/><path d="M10 23 Q30 27 50 20.5" stroke="#cbab72" stroke-width="0.6" fill="none" opacity="0.5"/><path d="M8 22 L20 27 L20 43 L8 38 Z" fill="#d9b877"/><path d="M20 27 L56 19 L56 35 L20 43 Z" fill="#c9a563"/><g><path d="M8 22 L20 27 L20 29 L8 24 Z" fill="#e8d09a"/><path d="M8 25.5 L20 30.5 L20 32.5 L8 27.5 Z" fill="#c19a5a"/><path d="M8 29 L20 34 L20 36 L8 31 Z" fill="#e8d09a"/><path d="M8 32.5 L20 37.5 L20 39.5 L8 34.5 Z" fill="#c19a5a"/><path d="M8 36 L20 41 L20 43 L8 38 Z" fill="#e8d09a"/></g><path d="M8 22 L44 14 L56 19 L20 27 Z" fill="#f2e0b4" opacity="0.3"/></svg>