<svg xmlns="http://www.w3.org/2000/svg" viewBox="0 0 64 64"><ellipse cx="32" cy="57" rx="15" ry="3" fill="#000000" opacity="0.08"/><path d="M20 10 L44 10 L44 50 L20 50 Z" fill="#eef1f4"/><path d="M38 10 L44 10 L44 50 L38 50 Z" fill="#d7dce1"/><path d="M20 10 L26 10 L26 50 L20 50 Z" fill="#f8fafb"/><path d="M20 50 L44 50 L44 54 Q44 55 43 55 L34 55 L34 51 L30 51 L30 55 L21 55 Q20 55 20 54 Z" fill="#b8bfc6"/><rect x="27" y="18" width="10" height="16" rx="1.5" fill="#3a4652"/><rect x="27" y="18" width="10" height="16" rx="1.5" fill="none" stroke="#2a333c" stroke-width="0.8"/><rect x="29" y="14" width="6" height="7" rx="1.5" fill="#2f6fb0"/><rect x="29" y="14" width="6" height="7" rx="1.5" fill="none" stroke="#255a90" stroke-width="0.7"/><rect x="24" y="38" width="16" height="3.5" rx="0.5" fill="#c4cad1"/><rect x="28" y="43" width="8" height="4" rx="0.6" fill="#9aa2aa"/></svg>