<svg xmlns="http://www.w3.org/2000/svg" viewBox="0 0 64 64">
  <ellipse cx="32" cy="56" rx="20" ry="3" fill="#000000" opacity="0.08"/>
  <g transform="rotate(-20 32 33)">
    <g>
      <rect x="6" y="24" width="52" height="4.6" rx="2.3" fill="#9199a1"/>
      <rect x="6" y="24" width="52" height="1.6" rx="0.8" fill="#c2c8ce"/>
      <g fill="#6d747c"><rect x="10" y="24" width="1.3" height="4.6"/><rect x="16" y="24" width="1.3" height="4.6"/><rect x="22" y="24" width="1.3" height="4.6"/><rect x="28" y="24" width="1.3" height="4.6"/><rect x="34" y="24" width="1.3" height="4.6"/><rect x="40" y="24" width="1.3" height="4.6"/><rect x="46" y="24" width="1.3" height="4.6"/><rect x="52" y="24" width="1.3" height="4.6"/></g>
    </g>
    <g>
      <rect x="6" y="30" width="52" height="4.6" rx="2.3" fill="#868d95"/>
      <rect x="6" y="30" width="52" height="1.6" rx="0.8" fill="#b8bec4"/>
      <g fill="#656c73"><rect x="13" y="30" width="1.3" height="4.6"/><rect x="19" y="30" width="1.3" height="4.6"/><rect x="25" y="30" width="1.3" height="4.6"/><rect x="31" y="30" width="1.3" height="4.6"/><rect x="37" y="30" width="1.3" height="4.6"/><rect x="43" y="30" width="1.3" height="4.6"/><rect x="49" y="30" width="1.3" height="4.6"/></g>
    </g>
    <g>
      <rect x="6" y="36" width="52" height="4.6" rx="2.3" fill="#9199a1"/>
      <rect x="6" y="36" width="52" height="1.6" rx="0.8" fill="#c2c8ce"/>
      <g fill="#6d747c"><rect x="10" y="36" width="1.3" height="4.6"/><rect x="16" y="36" width="1.3" height="4.6"/><rect x="22" y="36" width="1.3" height="4.6"/><rect x="28" y="36" width="1.3" height="4.6"/><rect x="34" y="36" width="1.3" height="4.6"/><rect x="40" y="36" width="1.3" height="4.6"/><rect x="46" y="36" width="1.3" height="4.6"/><rect x="52" y="36" width="1.3" height="4.6"/></g>
    </g>
    <rect x="28" y="21" width="4" height="22" rx="2" fill="#5f6a52"/>
    <rect x="28" y="21" width="4" height="22" rx="2" fill="#6f7a5c" opacity="0.5"/>
  </g>
</svg>
