<svg xmlns="http://www.w3.org/2000/svg" viewBox="0 0 64 64"><ellipse cx="32" cy="54" rx="21" ry="4" fill="#000000" opacity="0.08"/><ellipse cx="32" cy="34" rx="23" ry="19" fill="#e8862a"/><ellipse cx="32" cy="34" rx="23" ry="19" fill="none" stroke="#c96a15" stroke-width="1"/><ellipse cx="32" cy="33" rx="9.5" ry="7.5" fill="#f5f6f8"/><ellipse cx="32" cy="33" rx="9.5" ry="7.5" fill="none" stroke="#d0d5da" stroke-width="1"/><g stroke="#c96a15" stroke-width="1.4" opacity="0.85" fill="none"><path d="M10 30 Q32 19 54 30"/><path d="M9.6 33 Q32 22 54.4 33"/><path d="M9.6 36 Q32 25 54.4 36"/><path d="M11 40 Q32 50 53 40"/><path d="M13 44 Q32 53 51 44"/></g><g stroke="#ffb968" stroke-width="0.9" opacity="0.7" fill="none"><path d="M10 31.5 Q32 20.5 54 31.5"/><path d="M11 41.5 Q32 51.5 53 41.5"/></g><path d="M46 21 Q51 15 45 12" fill="none" stroke="#e8862a" stroke-width="5" stroke-linecap="round"/><path d="M46 21 Q51 15 45 12" fill="none" stroke="#c96a15" stroke-width="1" stroke-linecap="round"/></svg>