<svg xmlns="http://www.w3.org/2000/svg" viewBox="0 0 64 64"><ellipse cx="32" cy="56" rx="18" ry="3" fill="#000000" opacity="0.08"/><path d="M14 14 L50 14 L52 50 L12 50 Z" fill="#f4f6f8"/><path d="M50 14 L52 50 L44 50 L44 14 Z" fill="#dfe4e8"/><path d="M14 14 L50 14 L49 18 L15 18 Z" fill="#ffffff" opacity="0.6"/><path d="M22 22 L42 22 L43 44 L21 44 Z" fill="#e7ebee"/><path d="M24 24 L40 24 L41 42 L23 42 Z" fill="#fbfcfd"/><path d="M40 24 L41 42 L34 42 L34 24 Z" fill="#dde2e6"/><path d="M24 24 L40 24 L39 27 L25 27 Z" fill="#ffffff"/><circle cx="32" cy="33" r="1.3" fill="#c4cad1"/></svg>