<svg xmlns="http://www.w3.org/2000/svg" viewBox="0 0 64 64"><ellipse cx="32" cy="52" rx="23" ry="4" fill="#000000" opacity="0.08"/><path d="M10 24 L44 16 L54 20 L20 28 Z" fill="#d7ab68"/><path d="M10 24 L20 28 L20 46 L10 42 Z" fill="#a87f42"/><path d="M20 28 L54 20 L54 38 L20 46 Z" fill="#c19653"/><path d="M23 30 L51 23 M23 34 L51 27 M23 38 L51 31 M23 42 L51 35" stroke="#a87f42" stroke-width="0.6" opacity="0.6" fill="none"/><ellipse cx="15" cy="33" rx="2.2" ry="5" fill="#8f6a37"/><path d="M12 25 L18 27 M12 30 L18 32 M12 36 L18 38" stroke="#8f6a37" stroke-width="0.5" opacity="0.5" fill="none"/><path d="M10 24 L44 16 L54 20 L20 28 Z" fill="#e8c184" opacity="0.3"/></svg>