<svg xmlns="http://www.w3.org/2000/svg" viewBox="0 0 64 64"><defs><linearGradient id="mb-t" x1="0" y1="0" x2="1" y2="1"><stop offset="0" stop-color="#fbfaf7"/><stop offset="1" stop-color="#e7e3da"/></linearGradient></defs><ellipse cx="32" cy="53" rx="22" ry="3.2" fill="#000000" opacity="0.08"/><path d="M32 14 L54 25 L32 36 L10 25 Z" fill="url(#mb-t)"/><path d="M10 25 L32 36 L32 46 L10 35 Z" fill="#c9c4b8"/><path d="M54 25 L32 36 L32 46 L54 35 Z" fill="#b8b3a6"/><path d="M18 23 Q26 27 30 24 Q36 29 44 26" fill="none" stroke="#c2bcb0" stroke-width="1" opacity="0.55"/><path d="M20 24 Q27 28 31 25 Q37 30 45 27" fill="none" stroke="#b7b1a3" stroke-width="0.9" opacity="0.6"/><path d="M24 21 Q30 24 34 22" fill="none" stroke="#c8c3b7" stroke-width="0.7" opacity="0.5"/><path d="M32 15 L45 21.5 L32 28 L19 21.5 Z" fill="#ffffff" opacity="0.3"/></svg>