<svg xmlns="http://www.w3.org/2000/svg" viewBox="0 0 64 64">
  <ellipse cx="32" cy="55" rx="21" ry="3.5" fill="#000000" opacity="0.08"/>
  <path d="M10 26 L34 18 L54 26 L30 34 Z" fill="#fbfcfd"/>
  <path d="M30 34 L54 26 L54 44 L30 52 Z" fill="#d9dee3"/>
  <path d="M10 26 L30 34 L30 52 L10 44 Z" fill="#eceff2"/>
  <circle cx="20" cy="26" r="0.8" fill="#dfe4e9"/>
  <circle cx="27" cy="23" r="0.8" fill="#dfe4e9"/>
  <circle cx="34" cy="26" r="0.8" fill="#dfe4e9"/>
  <circle cx="41" cy="24" r="0.8" fill="#dfe4e9"/>
  <circle cx="24" cy="29" r="0.7" fill="#e6eaee"/>
  <circle cx="16" cy="36" r="0.9" fill="#dde2e7"/>
  <circle cx="22" cy="40" r="0.9" fill="#dde2e7"/>
  <circle cx="18" cy="44" r="0.8" fill="#dde2e7"/>
  <circle cx="26" cy="46" r="0.8" fill="#dde2e7"/>
  <circle cx="38" cy="38" r="0.9" fill="#cbd1d7"/>
  <circle cx="45" cy="35" r="0.9" fill="#cbd1d7"/>
  <circle cx="42" cy="44" r="0.8" fill="#cbd1d7"/>
  <circle cx="49" cy="40" r="0.8" fill="#cbd1d7"/>
</svg>