<svg xmlns="http://www.w3.org/2000/svg" viewBox="0 0 64 64">
  <ellipse cx="32" cy="54" rx="20" ry="3.2" fill="#000000" opacity="0.08"/>
  <path d="M12 24 L34 18 L54 24 L32 30 Z" fill="#c7ccd1"/>
  <path d="M32 30 L54 24 L54 46 L32 52 Z" fill="#9ea4aa"/>
  <path d="M12 24 L32 30 L32 52 L12 46 Z" fill="#b4bac0"/>
  <path d="M18 24.5 L28 21.8 L33 23.4 L23 26.1 Z" fill="#6f767d"/>
  <path d="M36 22.8 L46 20.1 L50 21.5 L40 24.2 Z" fill="#6f767d"/>
  <path d="M18 24.5 L23 26.1 L23 27.4 L18 25.8 Z" fill="#565c62"/>
  <path d="M36 22.8 L40 24.2 L40 25.5 L36 24.1 Z" fill="#565c62"/>
  <g fill="#8a9097"><circle cx="16" cy="34" r="0.6"/><circle cx="22" cy="40" r="0.6"/><circle cx="27" cy="45" r="0.5"/><circle cx="40" cy="34" r="0.6"/><circle cx="47" cy="38" r="0.5"/><circle cx="44" cy="44" r="0.5"/></g>
</svg>