<svg xmlns="http://www.w3.org/2000/svg" viewBox="0 0 64 64"><defs><linearGradient id="pq-a" x1="0" y1="0" x2="1" y2="0"><stop offset="0" stop-color="#c08a4e"/><stop offset="1" stop-color="#a5713a"/></linearGradient><linearGradient id="pq-b" x1="0" y1="0" x2="1" y2="0"><stop offset="0" stop-color="#a9743c"/><stop offset="1" stop-color="#8c5c2c"/></linearGradient></defs><ellipse cx="32" cy="55" rx="22" ry="3.2" fill="#000000" opacity="0.08"/><path d="M32 15 L54 26 L32 37 L10 26 Z" fill="#b47e46"/><path d="M32 16 L40 20 L28 26 L20 22 Z" fill="url(#pq-a)"/><path d="M40 20 L48 24 L36 30 L28 26 Z" fill="url(#pq-b)"/><path d="M24 24 L32 28 L20 34 L12 30 Z" fill="url(#pq-b)"/><path d="M32 28 L40 32 L28 38 L20 34 Z" fill="url(#pq-a)"/><path d="M20 22 L28 26 L28 27 L20 23 Z" fill="#6f4a22" opacity="0.5"/><path d="M28 26 L36 30 L36 31 L28 27 Z" fill="#6f4a22" opacity="0.5"/><path d="M20 34 L28 38 L28 39 L20 35 Z" fill="#6f4a22" opacity="0.5"/><path d="M32 16 L40 20 L39.6 20.3 L31.6 16.3 Z" fill="#e0b483" opacity="0.6"/></svg>