<svg xmlns="http://www.w3.org/2000/svg" viewBox="0 0 64 64"><ellipse cx="32" cy="52" rx="24" ry="4" fill="#000000" opacity="0.08"/><g><rect x="10" y="16" width="44" height="8" rx="1" fill="#c99a5b"/><rect x="10" y="16" width="44" height="8" rx="1" fill="none" stroke="#a87f42" stroke-width="0.6"/><path d="M10 18 Q30 17 54 18 M10 21 Q34 22 54 21" stroke="#b58a4c" stroke-width="0.6" fill="none" opacity="0.7"/></g><g><rect x="10" y="25" width="44" height="8" rx="1" fill="#d3a463"/><rect x="10" y="25" width="44" height="8" rx="1" fill="none" stroke="#a87f42" stroke-width="0.6"/><path d="M10 27.5 Q28 26.5 54 27.5 M10 30.5 Q36 31.5 54 30.5" stroke="#bd9251" stroke-width="0.6" fill="none" opacity="0.7"/></g><g><rect x="10" y="34" width="44" height="8" rx="1" fill="#c99a5b"/><rect x="10" y="34" width="44" height="8" rx="1" fill="none" stroke="#a87f42" stroke-width="0.6"/><path d="M10 36.5 Q32 35.5 54 36.5 M10 39.5 Q26 40.5 54 39.5" stroke="#b58a4c" stroke-width="0.6" fill="none" opacity="0.7"/></g><g><rect x="10" y="43" width="44" height="8" rx="1" fill="#d3a463"/><rect x="10" y="43" width="44" height="8" rx="1" fill="none" stroke="#a87f42" stroke-width="0.6"/><path d="M10 45.5 Q34 44.5 54 45.5 M10 48.5 Q30 49.5 54 48.5" stroke="#bd9251" stroke-width="0.6" fill="none" opacity="0.7"/></g><rect x="10" y="16" width="3" height="35" fill="#8f6a37" opacity="0.35"/></svg>