<svg xmlns="http://www.w3.org/2000/svg" viewBox="0 0 64 64"><ellipse cx="32" cy="57" rx="16" ry="2.5" fill="#000000" opacity="0.08"/><rect x="18" y="7" width="28" height="49" rx="1" fill="#b07d3e"/><rect x="18" y="7" width="28" height="49" rx="1" fill="none" stroke="#8f6330" stroke-width="1"/><rect x="40" y="7" width="6" height="49" fill="#9a6b34" opacity="0.5"/><rect x="21" y="10" width="22" height="43" rx="0.5" fill="#c08f4d"/><rect x="23.5" y="12.5" width="17" height="12" rx="1" fill="#a9793c"/><rect x="23.5" y="12.5" width="17" height="12" rx="1" fill="none" stroke="#8f6330" stroke-width="0.8"/><rect x="25.5" y="14.5" width="13" height="8" rx="0.5" fill="#c79654"/><rect x="23.5" y="27" width="17" height="12" rx="1" fill="#a9793c"/><rect x="23.5" y="27" width="17" height="12" rx="1" fill="none" stroke="#8f6330" stroke-width="0.8"/><rect x="25.5" y="29" width="13" height="8" rx="0.5" fill="#c79654"/><rect x="23.5" y="41.5" width="17" height="9" rx="1" fill="#a9793c"/><rect x="23.5" y="41.5" width="17" height="9" rx="1" fill="none" stroke="#8f6330" stroke-width="0.8"/><rect x="25.5" y="43.5" width="13" height="5" rx="0.5" fill="#c79654"/><circle cx="38" cy="33" r="1.8" fill="#e8c15a"/><circle cx="38" cy="33" r="1.8" fill="none" stroke="#b8912f" stroke-width="0.5"/></svg>