<svg xmlns="http://www.w3.org/2000/svg" viewBox="0 0 64 64"><defs><linearGradient id="pp-body" x1="0" y1="0" x2="1" y2="0"><stop offset="0" stop-color="#eceff2"/><stop offset="0.5" stop-color="#d3d8dd"/><stop offset="1" stop-color="#b3bac1"/></linearGradient></defs><ellipse cx="32" cy="57" rx="16" ry="2.6" fill="#000000" opacity="0.08"/><path d="M18 22 L46 22 L45 50 Q32 54 19 50 Z" fill="url(#pp-body)"/><ellipse cx="32" cy="22" rx="14" ry="4.5" fill="#c3c9cf"/><path d="M17 17 Q32 8 47 17 L47 19 Q32 12 17 19 Z" fill="#7a7f85" opacity="0.55"/><ellipse cx="32" cy="18" rx="14" ry="4.2" fill="#2f6fb0"/><ellipse cx="32" cy="17" rx="14" ry="4.2" fill="#3f86cf"/><ellipse cx="32" cy="16.4" rx="9" ry="2.4" fill="#5ba0e0"/><path d="M46 30 Q50 34 47 40 L44 39 Q47 34 44 31 Z" fill="#3f86cf"/><ellipse cx="46" cy="43" rx="2.2" ry="2.8" fill="#3f86cf"/><rect x="21" y="27" width="4" height="20" fill="#ffffff" opacity="0.3"/></svg>