<svg xmlns="http://www.w3.org/2000/svg" viewBox="0 0 64 64">
  <ellipse cx="32" cy="56" rx="19" ry="3" fill="#000000" opacity="0.08"/>
  <path d="M14 18 L46 18 L58 26 L26 26 Z" fill="#b9c0c7"/>
  <path d="M14 18 L14 46 L26 54 L26 26 Z" fill="#8b939b"/>
  <path d="M26 26 L58 26 L58 32 L38 32 L38 44 L58 44 L58 50 L26 50 Z" fill="#a7aeb6"/>
  <path d="M14 18 L26 26 L26 50 L14 42 Z" fill="#7c848c" opacity="0.35"/>
  <g fill="#6d757d">
    <path d="M14 18 L46 18 L47.5 19 L15.5 19 Z"/>
    <path d="M46 18 L58 26 L57 26.6 L45.4 18.8 Z"/>
  </g>
  <path d="M26 26 L38 26 L38 44 L26 44 Z" fill="#c3cad1" opacity="0.5"/>
  <rect x="14.6" y="20" width="1.4" height="20" fill="#c9d0d6" opacity="0.5"/>
</svg>
