<svg xmlns="http://www.w3.org/2000/svg" viewBox="0 0 64 64"><defs><linearGradient id="pa-top" x1="0" y1="0" x2="1" y2="1"><stop offset="0" stop-color="#eef1f4"/><stop offset="1" stop-color="#c3cad2"/></linearGradient><linearGradient id="pa-side" x1="0" y1="0" x2="0" y2="1"><stop offset="0" stop-color="#aab3bd"/><stop offset="1" stop-color="#7f8994"/></linearGradient></defs><ellipse cx="33" cy="55" rx="20" ry="3" fill="#000000" opacity="0.08"/><path d="M10 24 L40 12 L54 18 L24 30 Z" fill="url(#pa-top)"/><path d="M24 30 L54 18 L54 40 L24 52 Z" fill="url(#pa-side)"/><path d="M10 24 L24 30 L24 52 L10 46 Z" fill="#9aa4ae"/><path d="M14 26 L22 29 L22 34 L14 31 Z" fill="#6b747e"/><path d="M14 40 L22 43 L22 48 L14 45 Z" fill="#6b747e"/><path d="M10 24 L40 12 L42 13 L12 25 Z" fill="#f7f9fb" opacity="0.9"/><path d="M24 30 L24 52 L26 51 L26 31 Z" fill="#ffffff" opacity="0.25"/></svg>