<svg xmlns="http://www.w3.org/2000/svg" viewBox="0 0 64 64">
  <ellipse cx="34" cy="56" rx="16" ry="3" fill="#000000" opacity="0.08"/>
  <path d="M18 46 L18 30 Q18 16 32 16 L34 16 L34 30 Q26 30 26 38 L26 46 Z" fill="#c4ccd3"/>
  <path d="M18 46 L18 30 Q18 20 26 17 Q20 22 20 30 L20 46 Z" fill="#d8dee3"/>
  <path d="M32 16 L34 16 L34 30 Q30 30 28 32 Q30 28 32 28 Z" fill="#b0b9c1"/>
  <rect x="14" y="44" width="16" height="10" rx="2" fill="#cbd2d8"/>
  <rect x="14" y="44" width="16" height="3.5" rx="2" fill="#e0e5e9"/>
  <ellipse cx="22" cy="54" rx="8" ry="2.6" fill="#aab3bb"/>
  <ellipse cx="22" cy="53.5" rx="5.6" ry="1.7" fill="#8b949d"/>
  <path d="M30 12 L46 12 Q50 12 50 18 L50 22 L34 22 L34 16 Q34 12 30 12 Z" fill="#cbd2d8"/>
  <path d="M30 12 L46 12 Q50 12 50 18 L50 15 Q47 14 44 14 L32 14 Q31 12 30 12 Z" fill="#e0e5e9"/>
  <ellipse cx="48" cy="17" rx="2.6" ry="7" fill="#aab3bb"/>
  <ellipse cx="48" cy="17" rx="1.6" ry="5.4" fill="#868f98"/>
</svg>