<svg xmlns="http://www.w3.org/2000/svg" viewBox="0 0 64 64">
  <ellipse cx="30" cy="55" rx="13" ry="3" fill="#000000" opacity="0.08"/>
  <rect x="24" y="46" width="14" height="8" rx="2" fill="#b8c0c7"/>
  <rect x="24" y="46" width="14" height="3" rx="2" fill="#e2e7eb"/>
  <ellipse cx="31" cy="54" rx="8" ry="2.4" fill="#9aa3ab"/>
  <rect x="28" y="20" width="6" height="28" rx="3" fill="#c8d0d7"/>
  <rect x="29" y="20" width="2.2" height="28" fill="#eef2f5"/>
  <rect x="33" y="20" width="1.4" height="28" fill="#8f99a2"/>
  <path d="M31 20 Q31 12 40 12 L44 12 Q48 12 48 18 L44 18 Q40 18 40 20 Q40 22 34 22 Q31 22 31 20 Z" fill="#c8d0d7"/>
  <path d="M31 20 Q31 13 40 13 L44 13 Q46 13 47 15 Q43 15 41 16 Q37 17 36 20 Z" fill="#eaeff3"/>
  <rect x="43" y="17" width="6" height="5" rx="1.5" fill="#b3bcc4"/>
  <rect x="43" y="17" width="6" height="2" rx="1.5" fill="#dce2e7"/>
  <path d="M20 24 Q20 20 26 20 L30 20 L30 24 L26 24 Q24 24 24 26 Z" fill="#c8d0d7"/>
  <path d="M20 24 Q20 21 25 20.6 Q22 22 22 24 Z" fill="#e6ebef"/>
  <circle cx="19" cy="24" r="2.4" fill="#bcc4cb"/>
  <circle cx="19" cy="23.4" r="1.2" fill="#e2e7eb"/>
</svg>