<svg xmlns="http://www.w3.org/2000/svg" viewBox="0 0 64 64"><ellipse cx="32" cy="57" rx="20" ry="2.6" fill="#000000" opacity="0.08"/><rect x="12" y="14" width="26" height="9" rx="4.5" fill="#e9d9a8"/><rect x="12" y="14" width="26" height="9" rx="4.5" fill="none" stroke="#c9b56f" stroke-width="1"/><ellipse cx="12" cy="18.5" rx="2.6" ry="4.5" fill="#d9c78e"/><ellipse cx="38" cy="18.5" rx="2.6" ry="4.5" fill="#f2e7bf"/><path d="M38 18.5 L46 18.5 L46 30 L44 30 L44 20.5 L38 20.5 Z" fill="#9aa0a6"/><path d="M44 30 L46 30 L46 50 Q45 52 43 52 Q42 50 43 48 Z" fill="#3f86cf"/><path d="M18 38 L26 38 L25 45 L19 45 Z" fill="#c9cfd5"/><rect x="18.5" y="44" width="7" height="10" rx="1" fill="#c7d6e6"/><path d="M18.5 52 L25.5 52 L25.5 55 Q22 56.5 18.5 55 Z" fill="#7fa9d0"/><path d="M20 24 L24 24 L23 38 L21 38 Z" fill="#2f6fb0"/><rect x="20" y="18" width="4" height="7" fill="#3f86cf"/><rect x="14" y="16" width="3" height="5" fill="#ffffff" opacity="0.35"/></svg>