<svg xmlns="http://www.w3.org/2000/svg" viewBox="0 0 64 64">
  <ellipse cx="32" cy="57" rx="19" ry="3" fill="#000000" opacity="0.08"/>
  <path d="M22 30 L52 30 L52 50 Q52 52 50 52 L20 52 Q22 52 22 50 Z" fill="#3a3d42"/>
  <path d="M14 30 A8 12 0 0 0 14 52 L20 52 A8 12 0 0 1 20 30 Z" fill="#4a4e54"/>
  <ellipse cx="20" cy="41" rx="8" ry="12" fill="#2c2f34"/>
  <ellipse cx="20" cy="41" rx="4.5" ry="7" fill="#55595f"/>
  <ellipse cx="20" cy="41" rx="1.6" ry="2.6" fill="#26282c"/>
  <path d="M22 30 L52 30 L52 33 L22 33 Z" fill="#8f9499"/>
  <path d="M30 52 L58 52 L58 55 Q58 56 56 56 L30 56 Z" fill="#4a4e54"/>
  <path d="M30 52 L58 52 L58 53.5 L30 53.5 Z" fill="#7f8489"/>
  <circle cx="35" cy="37" r="0.7" fill="#6d7278"/>
  <circle cx="42" cy="40" r="0.7" fill="#6d7278"/>
  <circle cx="47" cy="36" r="0.7" fill="#6d7278"/>
</svg>