<svg xmlns="http://www.w3.org/2000/svg" viewBox="0 0 64 64"><defs><linearGradient id="se-body" x1="0" y1="0" x2="1" y2="0"><stop offset="0" stop-color="#eef0f2"/><stop offset="0.5" stop-color="#d5d9dd"/><stop offset="1" stop-color="#b7bcc2"/></linearGradient></defs><ellipse cx="32" cy="57" rx="16" ry="2.6" fill="#000000" opacity="0.08"/><path d="M17 20 Q32 12 47 20" fill="none" stroke="#9aa0a6" stroke-width="1.6"/><path d="M18 21 L46 21 L42 52 Q32 55 22 52 Z" fill="url(#se-body)"/><ellipse cx="32" cy="21" rx="14" ry="4.2" fill="#c6ccd2"/><ellipse cx="32" cy="20.4" rx="12" ry="3.4" fill="#f3f0e8"/><ellipse cx="32" cy="20" rx="12" ry="3.2" fill="#fbf9f3"/><path d="M22 21 Q28 24 32 21 Q36 24 42 21 L42 23 Q32 26 22 23 Z" fill="#e7e2d4"/><rect x="22" y="27" width="4" height="24" fill="#ffffff" opacity="0.3"/><path d="M18 21 Q11 20 12 16" fill="none" stroke="#9aa0a6" stroke-width="1.6"/></svg>