<svg xmlns="http://www.w3.org/2000/svg" viewBox="0 0 64 64"><defs><linearGradient id="serB" x1="0" y1="0" x2="0" y2="1"><stop offset="0" stop-color="#f2d98c"/><stop offset="0.5" stop-color="#d9b24e"/><stop offset="1" stop-color="#a87d24"/></linearGradient><linearGradient id="serS" x1="0" y1="0" x2="0" y2="1"><stop offset="0" stop-color="#dfe4e9"/><stop offset="1" stop-color="#9aa4ae"/></linearGradient></defs><ellipse cx="32" cy="57" rx="16" ry="2.6" fill="#000000" opacity="0.08"/><path d="M23 30 v-5 a9 9 0 0 1 18 0 v5 h-5 v-5 a4 4 0 0 0 -8 0 v5 z" fill="url(#serS)"/><path d="M23 30 v-5 a9 9 0 0 1 4 -7.4 a7.5 7.5 0 0 0 -2.6 5.6 v6.8 z" fill="#eff2f5" opacity="0.7"/><rect x="16" y="30" width="32" height="24" rx="4" fill="url(#serB)"/><rect x="16" y="30" width="32" height="7" rx="4" fill="#f6e2a0" opacity="0.75"/><rect x="17" y="49" width="30" height="4" rx="2" fill="#8f6a1e" opacity="0.55"/><circle cx="32" cy="41" r="4" fill="#7a5a18"/><circle cx="32" cy="41" r="4" fill="none" stroke="#c69a3a" stroke-width="0.8"/><path d="M32 43 l-1.6 5 h3.2 z" fill="#7a5a18"/></svg>