<svg xmlns="http://www.w3.org/2000/svg" viewBox="0 0 64 64"><ellipse cx="32" cy="57" rx="20" ry="3" fill="#000000" opacity="0.08"/><rect x="12" y="9" width="40" height="46" rx="3" fill="#e4e8ec"/><rect x="12" y="9" width="40" height="46" rx="3" fill="none" stroke="#c0c6cc" stroke-width="1"/><rect x="16" y="13" width="32" height="38" rx="1.5" fill="#cfd5da"/><rect x="19" y="17" width="26" height="13" rx="1" fill="#f4f6f8"/><g fill="#5a6570"><rect x="21" y="20" width="2.4" height="7" rx="0.5"/><rect x="25" y="20" width="2.4" height="7" rx="0.5"/><rect x="29" y="20" width="2.4" height="7" rx="0.5"/><rect x="33" y="20" width="2.4" height="7" rx="0.5"/><rect x="37" y="20" width="2.4" height="7" rx="0.5"/><rect x="41" y="20" width="2.4" height="7" rx="0.5"/></g><g fill="#2f6fb0"><rect x="21" y="19.5" width="2.4" height="2.4" rx="0.4"/><rect x="25" y="19.5" width="2.4" height="2.4" rx="0.4"/><rect x="29" y="19.5" width="2.4" height="2.4" rx="0.4"/><rect x="33" y="19.5" width="2.4" height="2.4" rx="0.4"/><rect x="37" y="19.5" width="2.4" height="2.4" rx="0.4"/><rect x="41" y="19.5" width="2.4" height="2.4" rx="0.4"/></g><rect x="19" y="33" width="26" height="6" rx="1" fill="#e8ebee"/><rect x="19" y="41" width="26" height="6" rx="1" fill="#e8ebee"/><path d="M48 9 L52 9 L52 55 L48 55 Z" fill="#d3d8dd" opacity="0.7"/><circle cx="49.5" cy="32" r="1" fill="#9aa2aa"/></svg>