<svg xmlns="http://www.w3.org/2000/svg" viewBox="0 0 64 64"><defs><radialGradient id="tfG" cx="0.5" cy="0.38" r="0.75"><stop offset="0" stop-color="#5a5f66"/><stop offset="0.7" stop-color="#3d4147"/><stop offset="1" stop-color="#2a2d31"/></radialGradient></defs><ellipse cx="32" cy="52" rx="24" ry="9" fill="#000000" opacity="0.08"/><ellipse cx="32" cy="42" rx="26" ry="12" fill="#26292d"/><ellipse cx="32" cy="40" rx="26" ry="12" fill="#3a3e43"/><ellipse cx="32" cy="38" rx="24" ry="11" fill="url(#tfG)"/><ellipse cx="32" cy="38" rx="20" ry="9" fill="none" stroke="#22252a" stroke-width="1.4"/><g stroke="#2b2f34" stroke-width="1.5" opacity="0.9"><path d="M18 34 l28 0 M16 38 l32 0 M18 42 l28 0"/><path d="M24 30 l0 16 M32 29 l0 18 M40 30 l0 16"/></g><g stroke="#63696f" stroke-width="0.8" opacity="0.55"><path d="M18 33.2 l28 0 M17 37.2 l30 0 M18 41.2 l28 0"/></g><ellipse cx="26" cy="33" rx="9" ry="3.5" fill="#6a7076" opacity="0.28"/><path d="M50 44 a24 11 0 0 1 -36 4" fill="none" stroke="#8a6a4a" stroke-width="1" opacity="0.3"/></svg>