<svg xmlns="http://www.w3.org/2000/svg" viewBox="0 0 64 64">
  <ellipse cx="32" cy="54" rx="22" ry="4" fill="#000000" opacity="0.08"/>
  <path d="M32 17 Q41 40 54 52 Q32 57 10 52 Q23 40 32 17 Z" fill="#a59a86"/>
  <path d="M32 17 Q41 40 54 52 Q43 54 32 53 Z" fill="#8d836f"/>
  <path d="M32 17 Q23 40 10 52 Q21 54 32 53 Z" fill="#b6ab96"/>
  <g stroke="#6f665a" stroke-width="0.4">
    <path d="M20 47 l4 -1 2 3 -3 2 -3 -1 z" fill="#c3b9a4"/>
    <path d="M37 49 l5 -1 2 3 -4 2 -3 -2 z" fill="#9aa0a4"/>
    <path d="M30 43 l4 0 1 3 -3 2 -3 -2 z" fill="#c9c0b0"/>
    <path d="M45 51 l4 -1 1 3 -3 1 -2 -1 z" fill="#a89e8a"/>
    <path d="M15 51 l4 -1 1 3 -4 1 -1 -2 z" fill="#b4aa96"/>
  </g>
  <g fill="#7a7164"><circle cx="27" cy="50" r="0.8"/><circle cx="33" cy="48" r="0.7"/><circle cx="41" cy="46" r="0.7"/><circle cx="34" cy="38" r="0.7"/></g>
</svg>