<svg xmlns="http://www.w3.org/2000/svg" viewBox="0 0 64 64">
  <ellipse cx="32" cy="56" rx="20" ry="3" fill="#000000" opacity="0.08"/>
  <g stroke="#7f878f" stroke-width="1.6" stroke-linecap="round">
    <path d="M12 20 L50 14"/>
    <path d="M16 30 L54 24"/>
    <path d="M20 40 L58 34"/>
    <path d="M24 50 L62 44"/>
  </g>
  <g stroke="#9198a0" stroke-width="1.6" stroke-linecap="round">
    <path d="M12 20 L24 50"/>
    <path d="M22 18.5 L34 48.5"/>
    <path d="M32 17 L44 47"/>
    <path d="M42 15.5 L54 45.5"/>
    <path d="M50 14 L62 44"/>
  </g>
  <g fill="#4f565d">
    <circle cx="12" cy="20" r="1.5"/><circle cx="22" cy="26.4" r="1.5"/><circle cx="32" cy="32.8" r="1.5"/><circle cx="42" cy="39.2" r="1.5"/>
    <circle cx="22" cy="18.5" r="1.5"/><circle cx="32" cy="24.9" r="1.5"/><circle cx="42" cy="31.3" r="1.5"/><circle cx="52" cy="37.7" r="1.5"/>
    <circle cx="32" cy="17" r="1.5"/><circle cx="42" cy="23.4" r="1.5"/><circle cx="52" cy="29.8" r="1.5"/>
    <circle cx="50" cy="14" r="1.5"/><circle cx="60" cy="20.4" r="1.5"/>
  </g>
</svg>
