<svg xmlns="http://www.w3.org/2000/svg" viewBox="0 0 64 64"><defs><linearGradient id="trBl" x1="0" y1="0" x2="1" y2="1"><stop offset="0" stop-color="#eef2f5"/><stop offset="0.5" stop-color="#c6cdd4"/><stop offset="1" stop-color="#9aa4ae"/></linearGradient><linearGradient id="trH" x1="0" y1="0" x2="0" y2="1"><stop offset="0" stop-color="#b5772f"/><stop offset="1" stop-color="#7d4c17"/></linearGradient></defs><ellipse cx="32" cy="56" rx="20" ry="3" fill="#000000" opacity="0.08"/><g transform="rotate(-34 32 32)"><path d="M6 32 l20 -8.5 q6 8.5 0 17 z" fill="url(#trBl)"/><path d="M6 32 l20 -8.5 q3 4.2 3.4 8.5 z" fill="#f1f4f7" opacity="0.7"/><path d="M6 32 l20 8.5 q1 -0.4 1.6 -1 l-18.6 -7.5 z" fill="#8a949e" opacity="0.6"/><rect x="26" y="29.5" width="6" height="5" rx="1.4" fill="#7c8690"/><rect x="26" y="29.5" width="6" height="1.6" rx="0.8" fill="#aeb7c0"/><path d="M32 28.5 q3 0 3 3.5 t-3 3.5 z" fill="#5f6871"/><rect x="35" y="28.5" width="19" height="7" rx="3.5" fill="url(#trH)"/><rect x="35" y="29.4" width="18" height="2" rx="1" fill="#c98f4a" opacity="0.7"/><circle cx="51" cy="32" r="1.4" fill="#5c380f"/></g></svg>