<svg xmlns="http://www.w3.org/2000/svg" viewBox="0 0 64 64"><defs><linearGradient id="visShaft" x1="0" y1="0" x2="0" y2="1"><stop offset="0" stop-color="#e6eaee"/><stop offset="0.5" stop-color="#c2cad2"/><stop offset="1" stop-color="#9aa4ae"/></linearGradient></defs><ellipse cx="32" cy="56" rx="20" ry="3" fill="#000000" opacity="0.08"/><g transform="rotate(-32 32 32)"><g transform="translate(0 -7)"><rect x="14" y="28" width="20" height="8" rx="2" fill="url(#visShaft)"/><path d="M14 28 h20 v2.6 h-20z" fill="#eef2f5" opacity="0.8"/><g fill="#8b95a0"><path d="M15 28 l3 8 h2 l-3-8z"/><path d="M20 28 l3 8 h2 l-3-8z"/><path d="M25 28 l3 8 h2 l-3-8z"/><path d="M30 28 l3 8 h2 l-3-8z"/></g><path d="M46 32 l-12-5.5 v11 z" fill="#aeb7c0"/><ellipse cx="34" cy="32" rx="3" ry="5.5" fill="#cfd6dc"/><path d="M31.6 29 h4.8 M31.6 35 h4.8" stroke="#7c8690" stroke-width="1.2"/></g><g transform="translate(0 7)"><rect x="14" y="28" width="20" height="8" rx="2" fill="url(#visShaft)"/><path d="M14 28 h20 v2.6 h-20z" fill="#eef2f5" opacity="0.8"/><g fill="#8b95a0"><path d="M15 28 l3 8 h2 l-3-8z"/><path d="M20 28 l3 8 h2 l-3-8z"/><path d="M25 28 l3 8 h2 l-3-8z"/><path d="M30 28 l3 8 h2 l-3-8z"/></g><path d="M46 32 l-12-5.5 v11 z" fill="#aeb7c0"/><ellipse cx="34" cy="32" rx="3" ry="5.5" fill="#cfd6dc"/><path d="M31.6 29 h4.8 M31.6 35 h4.8" stroke="#7c8690" stroke-width="1.2"/></g></g></svg>